# xmcd
#
# Track frame offsets:
#	150
#	16725
#	41325
#	70200
#
# Disc length: 1323 seconds
#
# Revision: 1
# Processed by: cddbd v1.5.2PL0 Copyright (c) Steve Scherf et al.
# Submitted via: audiograbber 1.83.01
#
DISCID=26052904
DTITLE=49ers - GOT TO BE FREE
DYEAR=1900
DGENRE=
TTITLE0=Got To Be Free (Radio Mix)
TTITLE1=Got To Be Free (Mars Plastic Mix)
TTITLE2=Got To Be Free (E-Smoove Groovy Mix)
TTITLE3=Got To Be Free (Night Dreams Club Mix)
EXTD=
EXTT0=
EXTT1=
EXTT2=
EXTT3=
PLAYORDER=
